<svg xmlns="http://www.w3.org/2000/svg" height="64" viewBox="0 -960 960 960" width="64"><path d="M464-298h35v-163h163v-35H499v-166h-35v166H298v35h166v163Zm15.982 182q-76.09 0-141.754-28.911-65.665-28.912-115-78.188-49.336-49.277-78.282-115.067Q116-403.955 116-480.326q0-75.264 28.97-141.541 28.971-66.276 78.534-115.884 49.563-49.608 114.991-77.928Q403.924-844 479.883-844q75.322 0 141.904 28.286t115.971 77.848q49.39 49.562 77.816 116.082Q844-555.264 844-479.898q0 76.366-28.286 141.529T737.88-223.792q-49.549 49.414-116.051 78.603Q555.327-116 479.982-116Zm.518-35q136.013 0 232.256-96.244Q809-343.487 809-480.5q0-136.013-96.056-232.256Q616.888-809 480-809q-136.513 0-232.756 96.056Q151-616.888 151-480q0 136.513 96.244 232.756Q343.487-151 480.5-151Zm-.5-329Z"/></svg>