<svg xmlns="http://www.w3.org/2000/svg" height="48" viewBox="0 -960 960 960" width="48"><path d="M354-185q-22.273 0-39.636-10.765Q297-206.529 284-225L133-438q-14-19.225-14-42.113Q119-503 133-523l151-212q11.667-18.059 29.773-29.029Q331.879-775 354-775h429q30.75 0 51.875 21.125T856-702v444q0 30.75-21.125 51.875T783-185H354Zm429-73v-444 444Zm-432 0h432v-444H351L195-480l156 222Zm211-171 78 77q10 11 25 11t26-11q10-10 10-25.5T691-404l-78-76 77-77q10-10 10-25t-10-26q-11-10-26.5-10T638-608l-76 77-77-78q-11-10-26-10t-25 10q-11 11-11 26.5t11 25.5l77 77-77 76q-11 11-11 26t11 25q10 11 25.5 11t26.5-11l76-76Z"/></svg>