<svg xmlns="http://www.w3.org/2000/svg" height="48" viewBox="0 -960 960 960" width="48"><path d="M262-399h268q12.75 0 21.375-8.675 8.625-8.676 8.625-21.5 0-12.825-8.625-21.325T530-459H262q-12.75 0-21.375 8.675-8.625 8.676-8.625 21.5 0 12.825 8.625 21.325T262-399Zm0-138h436q12.75 0 21.375-8.675 8.625-8.676 8.625-21.5Q728-579 719.375-588T698-597H262q-12.75 0-21.375 9.175-8.625 9.176-8.625 21.5 0 12.325 8.625 20.825T262-537Zm0-137h436q12.75 0 21.375-8.675 8.625-8.676 8.625-21.5 0-12.825-8.625-21.325T698-734H262q-12.75 0-21.375 8.675-8.625 8.676-8.625 21.5 0 12.825 8.625 21.325T262-674Zm-25 442L126-121q-17 17-39.5 8.062Q64-121.875 64-147v-682q0-28.725 22.138-50.862Q108.275-902 137-902h686q28.725 0 50.862 22.138Q896-857.725 896-829v524q0 28.725-22.138 50.863Q851.725-232 823-232H237Zm-31-73h617v-524H137v599l69-75Zm-69 0v-524 524Z"/></svg>