<svg xmlns="http://www.w3.org/2000/svg" height="48" viewBox="0 -960 960 960" width="48"><path d="M783-65H612q-15.75 0-26.375-10.86t-10.625-26q0-15.14 10.625-25.64T612-138h171v-442H177v187q0 14.775-10.675 25.388Q155.649-357 140.509-357q-15.141 0-25.825-10.612Q104-378.225 104-393v-371q0-28.725 22.137-50.862Q148.275-837 177-837h49v-20q0-15.625 11.384-26.812Q248.768-895 264.684-895q16.341 0 27.829 11.188Q304-872.625 304-857v20h352v-20q0-15.625 11.384-26.812Q678.768-895 694.684-895q16.341 0 27.829 11.188Q734-872.625 734-857v20h49q28.725 0 50.862 22.138Q856-792.725 856-764v626q0 28.725-22.138 50.862Q811.725-65 783-65Zm-407-99H80q-14.775 0-25.388-10.658Q44-185.316 44-200.158T54.612-226Q65.225-237 80-237h296l-81-82q-11-10-11-25.233 0-15.234 11-25.767 10-10 25-10t26 10l144 144q10 11.182 10 26.091T490-174L346-31q-11 11-26.133 11Q304.733-20 295-31q-11-10-11-25t11-26l81-82ZM177-653h606v-111H177v111Zm0 0v-111 111Z"/></svg>