<svg xmlns="http://www.w3.org/2000/svg" height="48" viewBox="0 -960 960 960" width="48"><path fill="darkred" d="M259-104q-30.75 0-51.875-21.125T186-177v-575h-11q-14.75 0-25.375-10.86Q139-773.719 139-788.86q0-15.14 10.613-25.64Q160.225-825 175-825h172q0-15 9.425-24.5T381-859h199q15.15 0 24.575 9.425Q614-840.15 614-825h172q15.2 0 26.1 10.675 10.9 10.676 10.9 25.816 0 15.141-10.9 25.825T786-752h-11v575q0 30.75-21.125 51.875T702-104H259Zm443-648H259v575h443v-575Zm-443 0v575-575Zm222 341 92 93q12.289 12 28.644 12.5Q618-305 630-317t12-28.5q0-16.5-12-28.5l-92-94 92-95q12-11 12-27.5t-12-28Q618-630 601.644-630q-16.355 0-28.644 11l-92 94-92-94q-12.289-11-28.644-11Q344-630 332-618.5T320-590q0 17 12 28l93 94-93 93q-12 12-12 29t12 28.5q12 11.5 28.356 11.5 16.355 0 28.644-12l92-93Z"/></svg>